<svg width="186" height="186" viewBox="0 0 186 186" fill="none" xmlns="http://www.w3.org/2000/svg">
<mask id="mask0_54626_31665" style="mask-type:alpha" maskUnits="userSpaceOnUse" x="0" y="0" width="186" height="186">
<rect width="186" height="186" fill="#D9D9D9"/>
</mask>
<g mask="url(#mask0_54626_31665)">
<path d="M93.0005 162.75L81.763 152.675C68.7172 140.921 57.9317 130.781 49.4067 122.256C40.8817 113.731 34.1005 106.078 29.063 99.2967C24.0255 92.5155 20.5057 86.2832 18.5036 80.5999C16.5015 74.9165 15.5005 69.104 15.5005 63.1624C15.5005 51.0207 19.5692 40.8811 27.7067 32.7436C35.8442 24.6061 45.9838 20.5374 58.1255 20.5374C64.8422 20.5374 71.2359 21.9582 77.3067 24.7999C83.3776 27.6415 88.6088 31.6457 93.0005 36.8124C97.3922 31.6457 102.623 27.6415 108.694 24.7999C114.765 21.9582 121.159 20.5374 127.875 20.5374C140.017 20.5374 150.157 24.6061 158.294 32.7436C166.432 40.8811 170.5 51.0207 170.5 63.1624C170.5 69.104 169.499 74.9165 167.497 80.5999C165.495 86.2832 161.975 92.5155 156.938 99.2967C151.9 106.078 145.119 113.731 136.594 122.256C128.069 130.781 117.284 140.921 104.238 152.675L93.0005 162.75Z" fill="#FF92D0"/>
</g>
</svg>
