<svg width="152" height="44" viewBox="0 0 152 44" fill="none" xmlns="http://www.w3.org/2000/svg">
<path d="M6.82268 24.5501V32.3627C6.82268 32.9222 6.61822 33.4065 6.2093 33.8154C5.80038 34.2243 5.31613 34.4288 4.75655 34.4288C4.19698 34.4288 3.71273 34.2243 3.30381 33.8154C2.89489 33.4065 2.69043 32.9222 2.69043 32.3627V24.9698C2.69043 22.9682 3.41142 21.2465 4.8534 19.8045C6.29539 18.3625 8.02792 17.6415 10.051 17.6415C11.4284 17.6415 12.6121 17.9428 13.6021 18.5454C14.5922 19.1481 15.0872 19.826 15.0872 20.5793C15.0872 21.0958 14.9042 21.537 14.5384 21.9029C14.1725 22.2473 13.7313 22.4194 13.2147 22.4194C12.8058 22.4194 12.3216 22.258 11.762 21.9352C11.2024 21.5908 10.6213 21.4187 10.0187 21.4187C9.11478 21.4187 8.35075 21.72 7.72661 22.3226C7.12399 22.9252 6.82268 23.6677 6.82268 24.5501Z" fill="white"/>
<path d="M29.8905 27.5847H20.2379C20.3885 28.4456 20.8835 29.1881 21.7229 29.8123C22.5622 30.4364 23.4662 30.7485 24.4347 30.7485C25.726 30.7485 26.7053 30.5225 27.3724 30.0705C27.8674 29.7477 28.3625 29.5863 28.8575 29.5863C29.3955 29.5863 29.8475 29.7585 30.2134 30.1028C30.5792 30.4472 30.7622 30.8776 30.7622 31.3942C30.7622 32.1259 30.3963 32.7393 29.6645 33.2343C28.3517 34.0306 26.6084 34.4288 24.4347 34.4288C22.0457 34.4288 20.0334 33.6109 18.3977 31.9753C16.762 30.3396 15.9442 28.3488 15.9442 26.0029C15.9442 23.7 16.762 21.7415 18.3977 20.1273C20.0549 18.4916 22.0242 17.6738 24.3055 17.6738C26.5223 17.6738 28.4055 18.4486 29.9551 19.9982C31.5262 21.5478 32.3118 23.3018 32.3118 25.2604C32.3118 25.9491 32.0858 26.5086 31.6338 26.9391C31.1819 27.3695 30.6008 27.5847 29.8905 27.5847ZM24.3055 21.2895C23.294 21.2895 22.3901 21.6231 21.5938 22.2903C20.819 22.9575 20.367 23.7 20.2379 24.5178H28.4055C28.3409 23.7215 27.9105 22.9898 27.1142 22.3226C26.3179 21.6339 25.3816 21.2895 24.3055 21.2895Z" fill="white"/>
<path d="M43.4429 21.4187C42.2377 21.4187 41.1938 21.8814 40.3114 22.8068C39.4506 23.7323 39.0201 24.8191 39.0201 26.0674C39.0201 27.3588 39.4613 28.4564 40.3437 29.3603C41.2477 30.2427 42.356 30.6839 43.6689 30.6839C44.4867 30.6839 45.2508 30.4795 45.961 30.0705C46.413 29.8123 46.8434 29.6831 47.2523 29.6831C47.7689 29.6831 48.2101 29.8768 48.5759 30.2642C48.9418 30.6301 49.1248 31.0821 49.1248 31.6201C49.1248 32.3304 48.7374 32.9438 47.9626 33.4603C46.951 34.1059 45.5306 34.4288 43.7012 34.4288C41.2907 34.4288 39.2461 33.6109 37.5674 31.9753C35.8886 30.3396 35.0493 28.3488 35.0493 26.0029C35.0493 23.6785 35.8779 21.7092 37.5351 20.095C39.1923 18.4594 41.1939 17.6415 43.5398 17.6415C45.197 17.6415 46.5851 17.9213 47.7043 18.4809C48.5221 18.8898 48.9311 19.5032 48.9311 20.321C48.9311 20.8591 48.7481 21.3218 48.3822 21.7092C48.0164 22.0751 47.5752 22.258 47.0586 22.258C46.6497 22.258 46.2193 22.1289 45.7673 21.8706C45.2077 21.5693 44.4329 21.4187 43.4429 21.4187Z" fill="white"/>
<path d="M61.4201 17.6415C63.7875 17.6415 65.6922 18.4163 67.1342 19.9659C68.5977 21.5155 69.3295 23.5278 69.3295 26.0029V32.3627C69.3295 32.9222 69.125 33.4065 68.7161 33.8154C68.3072 34.2243 67.8229 34.4288 67.2634 34.4288C66.7038 34.4288 66.2195 34.2243 65.8106 33.8154C65.4017 33.4065 65.1972 32.9222 65.1972 32.3627V26.0029C65.1972 24.69 64.8098 23.6031 64.035 22.7423C63.2818 21.8599 62.3025 21.4187 61.0973 21.4187C59.7629 21.4187 58.6868 21.8491 57.869 22.71C57.0511 23.5493 56.6422 24.6039 56.6422 25.8737V32.4918C56.6422 33.0298 56.4377 33.4926 56.0288 33.88C55.6199 34.2458 55.1356 34.4288 54.5761 34.4288C54.0165 34.4288 53.5322 34.2458 53.1233 33.88C52.7144 33.4926 52.5099 33.0298 52.5099 32.4918V11.9597C52.5099 11.4001 52.7144 10.9159 53.1233 10.5069C53.5322 10.098 54.0165 9.89355 54.5761 9.89355C55.1356 9.89355 55.6199 10.098 56.0288 10.5069C56.4377 10.9159 56.6422 11.4001 56.6422 11.9597V19.4817C57.9766 18.2549 59.5692 17.6415 61.4201 17.6415Z" fill="white"/>
<path d="M78.1148 20.0305V32.3627C78.1148 32.9222 77.9103 33.4065 77.5014 33.8154C77.0925 34.2243 76.6083 34.4288 76.0487 34.4288C75.4891 34.4288 75.0049 34.2243 74.5959 33.8154C74.187 33.4065 73.9826 32.9222 73.9826 32.3627V20.0305C73.9826 19.4709 74.187 18.9867 74.5959 18.5777C75.0049 18.1688 75.4891 17.9644 76.0487 17.9644C76.6083 17.9644 77.0925 18.1688 77.5014 18.5777C77.9103 18.9867 78.1148 19.4709 78.1148 20.0305ZM74.2731 15.4785C73.7781 14.9835 73.5306 14.3917 73.5306 13.703C73.5306 13.0143 73.7781 12.4224 74.2731 11.9274C74.7681 11.4324 75.36 11.1849 76.0487 11.1849C76.7374 11.1849 77.3292 11.4324 77.8243 11.9274C78.3193 12.4224 78.5668 13.0143 78.5668 13.703C78.5668 14.3917 78.3193 14.9835 77.8243 15.4785C77.3292 15.9736 76.7374 16.2211 76.0487 16.2211C75.36 16.2211 74.7681 15.9736 74.2731 15.4785Z" fill="white"/>
<path d="M83.5028 33.6863C83.0078 33.1913 82.7603 32.5994 82.7603 31.9107C82.7603 31.222 83.0078 30.6301 83.5028 30.1351C83.9978 29.6401 84.5897 29.3926 85.2784 29.3926C85.9671 29.3926 86.559 29.6401 87.054 30.1351C87.549 30.6301 87.7965 31.222 87.7965 31.9107C87.7965 32.5994 87.549 33.1913 87.054 33.6863C86.559 34.1813 85.9671 34.4288 85.2784 34.4288C84.5897 34.4288 83.9978 34.1813 83.5028 33.6863Z" fill="white"/>
<path d="M99.5917 21.4187C98.3865 21.4187 97.3426 21.8814 96.4602 22.8068C95.5993 23.7323 95.1689 24.8191 95.1689 26.0674C95.1689 27.3588 95.6101 28.4564 96.4925 29.3603C97.3964 30.2427 98.5048 30.6839 99.8177 30.6839C100.636 30.6839 101.4 30.4795 102.11 30.0705C102.562 29.8123 102.992 29.6831 103.401 29.6831C103.918 29.6831 104.359 29.8768 104.725 30.2642C105.091 30.6301 105.274 31.0821 105.274 31.6201C105.274 32.3304 104.886 32.9438 104.111 33.4603C103.1 34.1059 101.679 34.4288 99.85 34.4288C97.4395 34.4288 95.3949 33.6109 93.7162 31.9753C92.0374 30.3396 91.1981 28.3488 91.1981 26.0029C91.1981 23.6785 92.0267 21.7092 93.6839 20.095C95.3411 18.4594 97.3426 17.6415 99.6885 17.6415C101.346 17.6415 102.734 17.9213 103.853 18.4809C104.671 18.8898 105.08 19.5032 105.08 20.321C105.08 20.8591 104.897 21.3218 104.531 21.7092C104.165 22.0751 103.724 22.258 103.207 22.258C102.799 22.258 102.368 22.1289 101.916 21.8706C101.357 21.5693 100.582 21.4187 99.5917 21.4187Z" fill="white"/>
<path d="M112.468 24.5501V32.3627C112.468 32.9222 112.264 33.4065 111.855 33.8154C111.446 34.2243 110.962 34.4288 110.402 34.4288C109.842 34.4288 109.358 34.2243 108.949 33.8154C108.54 33.4065 108.336 32.9222 108.336 32.3627V24.9698C108.336 22.9682 109.057 21.2465 110.499 19.8045C111.941 18.3625 113.673 17.6415 115.696 17.6415C117.074 17.6415 118.258 17.9428 119.248 18.5454C120.238 19.1481 120.733 19.826 120.733 20.5793C120.733 21.0958 120.55 21.537 120.184 21.9029C119.818 22.2473 119.377 22.4194 118.86 22.4194C118.451 22.4194 117.967 22.258 117.407 21.9352C116.848 21.5908 116.267 21.4187 115.664 21.4187C114.76 21.4187 113.996 21.72 113.372 22.3226C112.769 22.9252 112.468 23.6677 112.468 24.5501Z" fill="white"/>
<path d="M149.87 25.6155V32.3627C149.87 32.9222 149.665 33.4065 149.256 33.8154C148.869 34.2243 148.395 34.4288 147.836 34.4288C147.276 34.4288 146.792 34.2243 146.383 33.8154C145.974 33.4065 145.77 32.9222 145.77 32.3627V25.2604C145.77 24.0982 145.415 23.1727 144.704 22.484C143.994 21.7738 143.079 21.4187 141.96 21.4187C140.884 21.4187 139.98 21.7738 139.249 22.484C138.538 23.1727 138.183 24.0982 138.183 25.2604V32.3627C138.183 32.9222 137.979 33.4065 137.57 33.8154C137.182 34.2243 136.709 34.4288 136.149 34.4288C135.59 34.4288 135.106 34.2243 134.697 33.8154C134.288 33.4065 134.083 32.9222 134.083 32.3627V25.2604C134.083 24.0982 133.717 23.1727 132.986 22.484C132.275 21.7738 131.393 21.4187 130.338 21.4187C129.241 21.4187 128.326 21.7738 127.594 22.484C126.884 23.1727 126.529 24.0982 126.529 25.2604V32.3627C126.529 32.9222 126.325 33.4065 125.916 33.8154C125.507 34.2243 125.022 34.4288 124.463 34.4288C123.903 34.4288 123.419 34.2243 123.01 33.8154C122.601 33.4065 122.397 32.9222 122.397 32.3627V25.6155C122.397 23.2911 123.172 21.3864 124.721 19.9013C126.271 18.3948 128.143 17.6415 130.338 17.6415C132.641 17.6415 134.578 18.4916 136.149 20.1919C137.677 18.4916 139.614 17.6415 141.96 17.6415C144.156 17.6415 146.017 18.3948 147.545 19.9013C149.095 21.3864 149.87 23.2911 149.87 25.6155Z" fill="white"/>
</svg>
